<svg width="17" height="15" viewBox="0 0 17 15" fill="none" xmlns="http://www.w3.org/2000/svg">
<g clip-path="url(#clip0_162_321)">
<path d="M16.0252 3.46661L13.339 1.00828C13.1615 0.847474 12.9212 0.757202 12.6708 0.757202C12.4204 0.757202 12.1802 0.847474 12.0027 1.00828L2.47962 9.66661L1.61014 13.0833C1.58014 13.2082 1.58117 13.3376 1.61315 13.4621C1.64512 13.5866 1.70724 13.703 1.79495 13.8028C1.88267 13.9027 1.99377 13.9834 2.12015 14.0391C2.24652 14.0949 2.38497 14.1242 2.52538 14.1249C2.59081 14.131 2.65673 14.131 2.72216 14.1249L6.51584 13.3333L16.0252 4.68328C16.2018 4.52166 16.301 4.30294 16.301 4.07495C16.301 3.84695 16.2018 3.62824 16.0252 3.46661ZM6.05821 12.5833L2.5025 13.2624L3.31249 10.0874L10.4376 3.62495L13.1834 6.12495L6.05821 12.5833ZM13.7966 5.52078L11.0509 3.02078L12.6434 1.57911L15.3433 4.07911L13.7966 5.52078Z" fill="#545454"/>
</g>
<defs>
<clipPath id="clip0_162_321">
<rect width="16.4744" height="15" fill="white" transform="translate(0.525635)"/>
</clipPath>
</defs>
</svg>
